<?xml version="1.0" encoding="UTF-8" standalone="no"?>
<svg
   version="1.1"
   width="695.48816"
   height="484.05432"
   viewBox="0 0 695.48816 484.05432"
   xml:space="preserve"
   id="svg1605"
   sodipodi:docname="LOGOV4.svg"
   xmlns:inkscape="http://www.inkscape.org/namespaces/inkscape"
   xmlns:sodipodi="http://sodipodi.sourceforge.net/DTD/sodipodi-0.dtd"
   xmlns="http://www.w3.org/2000/svg"
   xmlns:svg="http://www.w3.org/2000/svg"><sodipodi:namedview
   id="namedview1607"
   pagecolor="#ffffff"
   bordercolor="#999999"
   borderopacity="1"
   inkscape:showpageshadow="0"
   inkscape:pageopacity="0"
   inkscape:pagecheckerboard="0"
   inkscape:deskcolor="#d1d1d1"
   showgrid="false" />
<desc
   id="desc1507">Created with Fabric.js 5.2.4</desc>
<defs
   id="defs1509" />
<g
   transform="translate(333.2401,283.47607)"
   id="f14cbaca-3505-43fa-997a-efbaf8e66fd5">
<rect
   style="visibility:hidden;opacity:1;fill:#ffffff;fill-rule:nonzero;stroke:none;stroke-width:1;stroke-linecap:butt;stroke-linejoin:miter;stroke-miterlimit:4;stroke-dasharray:none;stroke-dashoffset:0"
   vector-effect="non-scaling-stroke"
   x="-540"
   y="-540"
   rx="0"
   ry="0"
   width="1080"
   height="1080"
   id="rect1511" />
</g>

<g
   transform="translate(348.4401,242.94607)"
   id="g1603"
   inkscape:export-filename="LOGOV4.svg"
   inkscape:export-xdpi="96"
   inkscape:export-ydpi="96">
<g
   vector-effect="non-scaling-stroke"
   id="g1601">
		<g
   transform="matrix(3.97,0,0,3.97,-166.58,67.9)"
   id="path543">
<circle
   style="opacity:1;fill:#05f3ff;fill-rule:nonzero;stroke:#000000;stroke-width:0.264583;stroke-linecap:butt;stroke-linejoin:miter;stroke-miterlimit:4;stroke-dasharray:none;stroke-dashoffset:0"
   vector-effect="non-scaling-stroke"
   cx="0"
   cy="0"
   r="0.073473476"
   id="circle1515" />
</g>
		<g
   transform="matrix(3.97,0,0,3.97,-15.32,-27.09)"
   id="path1363">
<path
   style="opacity:1;fill:#cccccc;fill-rule:nonzero;stroke:#000000;stroke-width:0.4;stroke-linecap:butt;stroke-linejoin:miter;stroke-miterlimit:4;stroke-dasharray:none;stroke-dashoffset:0"
   vector-effect="non-scaling-stroke"
   transform="translate(-107.24,-124.77)"
   d="m 126.3104,119.48594 -27.364742,0.36535 -10.322887,3.44062 c 0.03503,0.49412 0.05279,0.9893 0.05323,1.48466 -0.0047,1.78058 -0.232963,3.55353 -0.679545,5.2772 l 38.496354,-0.3514 z"
   stroke-linecap="round"
   id="path1518" />
</g>
		<g
   transform="matrix(3.97,0,0,3.97,-211.06,-166.27)"
   id="path1365">
<path
   style="opacity:1;fill:#cccccc;fill-rule:nonzero;stroke:#000000;stroke-width:0.4;stroke-linecap:butt;stroke-linejoin:miter;stroke-miterlimit:4;stroke-dasharray:none;stroke-dashoffset:0"
   vector-effect="non-scaling-stroke"
   transform="translate(-57.92,-89.7)"
   d="m 56.829234,70.640052 -9.683758,3.260758 8.615908,25.975868 6.455955,8.879172 c 2.049518,-0.94825 4.23701,-1.56395 6.480243,-1.82396 z"
   stroke-linecap="round"
   id="path1521" />
</g>
		<g
   transform="matrix(3.97,0,0,3.97,-281.21,73.37)"
   id="path1367">
<path
   style="opacity:1;fill:#cccccc;fill-rule:nonzero;stroke:#000000;stroke-width:0.4;stroke-linecap:butt;stroke-linejoin:miter;stroke-miterlimit:4;stroke-dasharray:none;stroke-dashoffset:0"
   vector-effect="non-scaling-stroke"
   transform="translate(-40.24,-150.08)"
   d="m 52.840684,133.82461 -29.251999,24.77797 6.671904,7.73857 20.808398,-17.77582 5.829272,-9.39365 c -1.627097,-1.55628 -2.996684,-3.36113 -4.057575,-5.34707 z"
   stroke-linecap="round"
   id="path1524" />
</g>
		<g
   transform="matrix(3.97,0,0,3.97,-12.46,132.91)"
   id="path1421">
<path
   style="opacity:1;fill:#065735;fill-rule:nonzero;stroke:#000000;stroke-width:0.4;stroke-linecap:butt;stroke-linejoin:miter;stroke-miterlimit:4;stroke-dasharray:none;stroke-dashoffset:0"
   vector-effect="non-scaling-stroke"
   transform="translate(-107.97,-165.09)"
   d="m 87.937741,138.04873 0.08663,54.07658 39.860379,-0.0172 0.0456,-11.38544 -28.468581,-0.034 -1.6e-4,-19.39216 28.531691,-0.0115 -0.0592,-11.38538 -28.467401,0.0322 0.1154,-11.88314 z"
   stroke-linecap="round"
   id="path1527" />
</g>
		<g
   transform="matrix(3.97,0,0,3.97,186.58,95.97)"
   id="path1423">
<path
   style="opacity:1;fill:#065735;fill-rule:nonzero;stroke:#000000;stroke-width:0.4;stroke-linecap:butt;stroke-linejoin:miter;stroke-miterlimit:4;stroke-dasharray:none;stroke-dashoffset:0"
   vector-effect="non-scaling-stroke"
   transform="translate(-158.12,-155.78)"
   d="m 132.26858,192.11576 -0.40565,-67.34604 4.3719,-5.29292 13.04467,-0.012 23.86898,60.85542 0.40308,-55.55049 3.62051,-5.33062 7.13885,-0.0106 0.0636,72.70191 -17.2904,-0.006 -23.7197,-61.86825 0.3061,61.86903 z"
   stroke-linecap="round"
   id="path1530" />
</g>
		<g
   transform="matrix(3.97,0,0,3.97,-160.97,140.4)"
   id="path3659">
<path
   style="opacity:1;fill:#808080;fill-rule:nonzero;stroke:#000000;stroke-width:0.349649;stroke-linecap:butt;stroke-linejoin:miter;stroke-miterlimit:4;stroke-dasharray:none;stroke-dashoffset:0"
   vector-effect="non-scaling-stroke"
   transform="translate(-70.54,-166.98)"
   d="m 62.271965,141.93167 -0.02483,2.27614 4.405294,1.93377 -1.697279,40.8133 -7.581889,2.42553 -0.0014,2.63909 26.340718,-0.021 v -2.61803 l -7.546941,-2.51176 -2.028826,-43.52978 c -1.297524,0.29795 -2.620881,0.44965 -3.948212,0.45258 -2.73404,-0.003 -5.434912,-0.6379 -7.916654,-1.8598 z"
   stroke-linecap="round"
   id="path1533" />
</g>
		<g
   transform="matrix(3.97,0,0,3.97,20.75,240.02)"
   id="path828">
<path
   style="opacity:1;fill:none;fill-rule:nonzero;stroke:#0000ff;stroke-width:0.011402;stroke-linecap:square;stroke-linejoin:miter;stroke-miterlimit:4;stroke-dasharray:none;stroke-dashoffset:0;stroke-opacity:0.5"
   vector-effect="non-scaling-stroke"
   transform="translate(-117.62,-140.79)"
   d="m 37.216216,140.83784 160.813744,-0.0955"
   stroke-linecap="round"
   id="path1536" />
</g>
		<g
   transform="matrix(3.97,0,0,3.97,339.84,239.81)"
   id="path830">
<path
   style="opacity:1;fill:none;fill-rule:nonzero;stroke:#ff0000;stroke-width:0.011402;stroke-linecap:butt;stroke-linejoin:miter;stroke-miterlimit:4;stroke-dasharray:none;stroke-dashoffset:0;stroke-opacity:0.5"
   vector-effect="non-scaling-stroke"
   transform="translate(-198.03,-140.74)"
   d="m 198.02996,140.74237 c 0,-0.004 0,-0.008 0,-0.0114"
   stroke-linecap="round"
   id="path1539" />
</g>
		<g
   transform="matrix(3.97,0,0,3.97,20.75,240)"
   id="path832">
<path
   style="opacity:1;fill:none;fill-rule:nonzero;stroke:#ff0000;stroke-width:0.011402;stroke-linecap:square;stroke-linejoin:miter;stroke-miterlimit:4;stroke-dasharray:none;stroke-dashoffset:0;stroke-opacity:0.5"
   vector-effect="non-scaling-stroke"
   transform="translate(-117.62,-140.78)"
   d="M 37.216216,140.83784 198.02996,140.73096"
   stroke-linecap="round"
   id="path1542" />
</g>
		<g
   transform="matrix(0.05,0,0,0.05,341.27,239.44)"
   id="rect822">
<rect
   style="opacity:1;fill:#333333;fill-opacity:0.5;fill-rule:nonzero;stroke:none;stroke-width:0;stroke-linecap:butt;stroke-linejoin:miter;stroke-miterlimit:4;stroke-dasharray:none;stroke-dashoffset:0"
   vector-effect="non-scaling-stroke"
   x="-18.112305"
   y="-6.5644531"
   rx="0"
   ry="0"
   width="36.224609"
   height="13.128906"
   id="rect1545" />
</g>
		<g
   transform="matrix(0.05,0,0,0.05,343.99,238.99)"
   id="text820">
		<text
   xml:space="preserve"
   font-family="Haettenschweiler"
   font-size="40px"
   font-style="normal"
   font-weight="normal"
   style="white-space:pre;opacity:1;fill:#05f3ff;fill-rule:nonzero;stroke:#000000;stroke-width:1.51181;stroke-linecap:butt;stroke-linejoin:miter;stroke-miterlimit:4;stroke-dasharray:none;stroke-dashoffset:0"
   id="text1550"><tspan
     x="-61.060001"
     y="12.57"
     id="tspan1548">160.81 mm</tspan></text>
</g>
		<g
   transform="matrix(0.05,0,0,0.05,339.91,240.78)"
   id="rect812">
<rect
   style="opacity:1;fill:#337f33;fill-opacity:0.5;fill-rule:nonzero;stroke:none;stroke-width:0;stroke-linecap:butt;stroke-linejoin:miter;stroke-miterlimit:4;stroke-dasharray:none;stroke-dashoffset:0"
   vector-effect="non-scaling-stroke"
   x="-11.518066"
   y="-6.5644531"
   rx="0"
   ry="0"
   width="23.036133"
   height="13.128906"
   id="rect1553" />
</g>
		<g
   transform="matrix(0.05,0,0,0.05,341.43,240.33)"
   id="text810">
		<text
   xml:space="preserve"
   font-family="Haettenschweiler"
   font-size="40px"
   font-style="normal"
   font-weight="normal"
   style="white-space:pre;opacity:1;fill:#05f3ff;fill-rule:nonzero;stroke:#000000;stroke-width:1.51181;stroke-linecap:butt;stroke-linejoin:miter;stroke-miterlimit:4;stroke-dasharray:none;stroke-dashoffset:0"
   id="text1558"><tspan
     x="-34.59"
     y="12.57"
     id="tspan1556">0.00 °</tspan></text>
</g>
		<g
   transform="matrix(3.97,0,0,3.97,75.63,229.96)"
   id="path3546">
<path
   style="opacity:1;fill:none;fill-rule:nonzero;stroke:#0000ff;stroke-width:0.00570101;stroke-linecap:square;stroke-linejoin:miter;stroke-miterlimit:4;stroke-dasharray:none;stroke-dashoffset:0;stroke-opacity:0.5"
   vector-effect="non-scaling-stroke"
   transform="translate(-87.35,-139.76)"
   d="m 85.383101,139.76035 3.932035,-3e-5"
   stroke-linecap="round"
   id="path1561" />
</g>
		<g
   transform="matrix(3.97,0,0,3.97,83.44,229.96)"
   id="path3548">
<path
   style="opacity:1;fill:none;fill-rule:nonzero;stroke:#ff0000;stroke-width:0.00570101;stroke-linecap:butt;stroke-linejoin:miter;stroke-miterlimit:4;stroke-dasharray:none;stroke-dashoffset:0;stroke-opacity:0.5"
   vector-effect="non-scaling-stroke"
   transform="translate(-89.32,-139.76)"
   d="m 89.315136,139.76032 c 0,1e-5 0,2e-5 0,3e-5"
   stroke-linecap="round"
   id="path1564" />
</g>
		<g
   transform="matrix(3.97,0,0,3.97,75.63,229.96)"
   id="path3550">
<path
   style="opacity:1;fill:none;fill-rule:nonzero;stroke:#ff0000;stroke-width:0.00570101;stroke-linecap:square;stroke-linejoin:miter;stroke-miterlimit:4;stroke-dasharray:none;stroke-dashoffset:0;stroke-opacity:0.5"
   vector-effect="non-scaling-stroke"
   transform="translate(-87.35,-139.76)"
   d="m 85.383101,139.76035 h 3.932035"
   stroke-linecap="round"
   id="path1567" />
</g>
		<g
   transform="matrix(3.97,0,0,3.97,83.44,229.96)"
   id="path3552">
<path
   style="opacity:1;fill:none;fill-rule:nonzero;stroke:#ff0000;stroke-width:0.00570101;stroke-linecap:square;stroke-linejoin:miter;stroke-miterlimit:4;stroke-dasharray:none;stroke-dashoffset:0;stroke-opacity:0.5"
   vector-effect="non-scaling-stroke"
   transform="translate(-89.32,-139.76)"
   d="m 89.296362,139.74155 0.03755,0.0376 m 0,-0.0376 -0.03755,0.0376"
   stroke-linecap="round"
   id="path1570" />
</g>
		<g
   transform="matrix(0.02,0,0,0.02,84.15,229.77)"
   id="rect3540">
<rect
   style="opacity:1;fill:#333333;fill-opacity:0.5;fill-rule:nonzero;stroke:none;stroke-width:0;stroke-linecap:butt;stroke-linejoin:miter;stroke-miterlimit:4;stroke-dasharray:none;stroke-dashoffset:0"
   vector-effect="non-scaling-stroke"
   x="-15.614746"
   y="-6.5644531"
   rx="0"
   ry="0"
   width="31.229492"
   height="13.128906"
   id="rect1573" />
</g>
		<g
   transform="matrix(0.02,0,0,0.02,85.28,229.54)"
   id="text3538">
		<text
   xml:space="preserve"
   font-family="Haettenschweiler"
   font-size="40px"
   font-style="normal"
   font-weight="normal"
   style="white-space:pre;opacity:1;fill:#05f3ff;fill-rule:nonzero;stroke:#000000;stroke-width:1.51181;stroke-linecap:butt;stroke-linejoin:miter;stroke-miterlimit:4;stroke-dasharray:none;stroke-dashoffset:0"
   id="text1578"><tspan
     x="-51.060001"
     y="12.57"
     id="tspan1576">3.93 mm</tspan></text>
</g>
		<g
   transform="matrix(0.02,0,0,0.02,83.47,230.44)"
   id="rect3530">
<rect
   style="opacity:1;fill:#337f33;fill-opacity:0.5;fill-rule:nonzero;stroke:none;stroke-width:0;stroke-linecap:butt;stroke-linejoin:miter;stroke-miterlimit:4;stroke-dasharray:none;stroke-dashoffset:0"
   vector-effect="non-scaling-stroke"
   x="-12.626465"
   y="-6.5644531"
   rx="0"
   ry="0"
   width="25.25293"
   height="13.128906"
   id="rect1581" />
</g>
		<g
   transform="matrix(0.02,0,0,0.02,84.33,230.22)"
   id="text3528">
		<text
   xml:space="preserve"
   font-family="Haettenschweiler"
   font-size="40px"
   font-style="normal"
   font-weight="normal"
   style="white-space:pre;opacity:1;fill:#05f3ff;fill-rule:nonzero;stroke:#000000;stroke-width:1.51181;stroke-linecap:butt;stroke-linejoin:miter;stroke-miterlimit:4;stroke-dasharray:none;stroke-dashoffset:0"
   id="text1586"><tspan
     x="-39.09"
     y="12.57"
     id="tspan1584">-0.00 °</tspan></text>
</g>
		<g
   transform="matrix(3.97,0,0,3.97,-160.97,-27.09)"
   id="path1258">
<circle
   style="opacity:1;fill:#808080;fill-rule:nonzero;stroke:#000000;stroke-width:0.413044;stroke-linecap:butt;stroke-linejoin:miter;stroke-miterlimit:4;stroke-dasharray:none;stroke-dashoffset:0"
   vector-effect="non-scaling-stroke"
   cx="0"
   cy="0"
   r="9.293478"
   id="circle1589" />
</g>
		<g
   transform="matrix(3.97,0,0,3.97,48.33,-27.67)"
   id="path15074">
<path
   style="opacity:1;fill:#cc0000;fill-rule:nonzero;stroke:#000000;stroke-width:0.4;stroke-linecap:butt;stroke-linejoin:miter;stroke-miterlimit:4;stroke-dasharray:none;stroke-dashoffset:0"
   vector-effect="non-scaling-stroke"
   transform="translate(-123.28,-124.62)"
   d="m 126.3104,119.48594 -6.23834,0.0833 0.002,10.19173 6.41895,-0.0586 z"
   stroke-linecap="round"
   id="path1592" />
</g>
		<g
   transform="matrix(3.97,0,0,3.97,-325.05,114.81)"
   id="path15174">
<path
   style="opacity:1;fill:#cc0000;fill-rule:nonzero;stroke:#000000;stroke-width:0.4;stroke-linecap:butt;stroke-linejoin:miter;stroke-miterlimit:4;stroke-dasharray:none;stroke-dashoffset:0"
   vector-effect="non-scaling-stroke"
   transform="translate(-29.2,-160.53)"
   d="m 23.682658,158.50966 4.5555,-3.7975 6.568064,7.74583 -4.545634,3.88316 -6.671903,-7.73857 z"
   stroke-linecap="round"
   id="path1595" />
</g>
		<g
   transform="matrix(3.97,0,0,3.97,-230.48,-223.59)"
   id="path15244">
<path
   style="opacity:1;fill:#cc0000;fill-rule:nonzero;stroke:#000000;stroke-width:0.4;stroke-linecap:butt;stroke-linejoin:miter;stroke-miterlimit:4;stroke-dasharray:none;stroke-dashoffset:0"
   vector-effect="non-scaling-stroke"
   transform="translate(-53.03,-75.26)"
   d="m 47.142532,73.954399 1.981398,5.915904 9.788779,-2.957951 -2.083475,-6.2723 z"
   stroke-linecap="round"
   id="path1598" />
</g>
</g>
</g>
</svg>
