<?xml version="1.0" encoding="UTF-8" standalone="no"?>
<svg
   version="1.1"
   width="695.48816"
   height="484.05432"
   viewBox="0 0 695.48816 484.05432"
   xml:space="preserve"
   id="svg566"
   sodipodi:docname="LOGOV4_White.svg"
   inkscape:version="1.2.2 (732a01da63, 2022-12-09)"
   xmlns:inkscape="http://www.inkscape.org/namespaces/inkscape"
   xmlns:sodipodi="http://sodipodi.sourceforge.net/DTD/sodipodi-0.dtd"
   xmlns="http://www.w3.org/2000/svg"
   xmlns:svg="http://www.w3.org/2000/svg"><sodipodi:namedview
   id="namedview126"
   pagecolor="#000000"
   bordercolor="#999999"
   borderopacity="1"
   inkscape:showpageshadow="0"
   inkscape:pageopacity="0"
   inkscape:pagecheckerboard="0"
   inkscape:deskcolor="#d1d1d1"
   showgrid="false"
   inkscape:zoom="1.2302139"
   inkscape:cx="253.208"
   inkscape:cy="262.55596"
   inkscape:window-width="1920"
   inkscape:window-height="1019"
   inkscape:window-x="1044"
   inkscape:window-y="236"
   inkscape:window-maximized="1"
   inkscape:current-layer="svg566" />
<desc
   id="desc466">Created with Fabric.js 5.2.4</desc>
<defs
   id="defs468" />



<g
   transform="matrix(3.97,0,0,3.97,333.12009,215.85608)"
   id="path1363">
<path
   style="opacity:1;fill:#f9f9f9;fill-rule:nonzero;stroke:#ffffff;stroke-width:0.4;stroke-linecap:butt;stroke-linejoin:miter;stroke-miterlimit:4;stroke-dasharray:none;stroke-dashoffset:0"
   vector-effect="non-scaling-stroke"
   transform="translate(-107.24,-124.77)"
   d="m 126.3104,119.48594 -27.364742,0.36535 -10.322887,3.44062 c 0.03503,0.49412 0.05279,0.9893 0.05323,1.48466 -0.0047,1.78058 -0.232963,3.55353 -0.679545,5.2772 l 38.496354,-0.3514 z"
   stroke-linecap="round"
   id="path479" />
</g><g
   transform="matrix(3.97,0,0,3.97,137.38009,76.67608)"
   id="path1365">
<path
   style="opacity:1;fill:#f9f9f9;fill-rule:nonzero;stroke:#ffffff;stroke-width:0.4;stroke-linecap:butt;stroke-linejoin:miter;stroke-miterlimit:4;stroke-dasharray:none;stroke-dashoffset:0"
   vector-effect="non-scaling-stroke"
   transform="translate(-57.92,-89.7)"
   d="m 56.829234,70.640052 -9.683758,3.260758 8.615908,25.975868 6.455955,8.879172 c 2.049518,-0.94825 4.23701,-1.56395 6.480243,-1.82396 z"
   stroke-linecap="round"
   id="path482" />
</g><g
   transform="matrix(3.97,0,0,3.97,67.23009,316.31608)"
   id="path1367">
<path
   style="opacity:1;fill:#f9f9f9;fill-rule:nonzero;stroke:#ffffff;stroke-width:0.4;stroke-linecap:butt;stroke-linejoin:miter;stroke-miterlimit:4;stroke-dasharray:none;stroke-dashoffset:0"
   vector-effect="non-scaling-stroke"
   transform="translate(-40.24,-150.08)"
   d="m 52.840684,133.82461 -29.251999,24.77797 6.671904,7.73857 20.808398,-17.77582 5.829272,-9.39365 c -1.627097,-1.55628 -2.996684,-3.36113 -4.057575,-5.34707 z"
   stroke-linecap="round"
   id="path485" />
</g><g
   transform="matrix(3.97,0,0,3.97,335.98009,375.85608)"
   id="path1421">
<path
   style="opacity:1;fill:#f9f9f9;fill-rule:nonzero;stroke:#ffffff;stroke-width:0.4;stroke-linecap:butt;stroke-linejoin:miter;stroke-miterlimit:4;stroke-dasharray:none;stroke-dashoffset:0"
   vector-effect="non-scaling-stroke"
   transform="translate(-107.97,-165.09)"
   d="m 87.937741,138.04873 0.08663,54.07658 39.860379,-0.0172 0.0456,-11.38544 -28.468581,-0.034 -1.6e-4,-19.39216 28.531691,-0.0115 -0.0592,-11.38538 -28.467401,0.0322 0.1154,-11.88314 z"
   stroke-linecap="round"
   id="path488" />
</g><g
   transform="matrix(3.97,0,0,3.97,535.02009,338.91608)"
   id="path1423">
<path
   style="opacity:1;fill:#f9f9f9;fill-rule:nonzero;stroke:#ffffff;stroke-width:0.4;stroke-linecap:butt;stroke-linejoin:miter;stroke-miterlimit:4;stroke-dasharray:none;stroke-dashoffset:0"
   vector-effect="non-scaling-stroke"
   transform="translate(-158.12,-155.78)"
   d="m 132.26858,192.11576 -0.40565,-67.34604 4.3719,-5.29292 13.04467,-0.012 23.86898,60.85542 0.40308,-55.55049 3.62051,-5.33062 7.13885,-0.0106 0.0636,72.70191 -17.2904,-0.006 -23.7197,-61.86825 0.3061,61.86903 z"
   stroke-linecap="round"
   id="path491" />
</g><g
   transform="matrix(3.97,0,0,3.97,187.47009,383.34608)"
   id="path3659">
<path
   style="opacity:1;fill:#f9f9f9;fill-rule:nonzero;stroke:#ffffff;stroke-width:0.349649;stroke-linecap:butt;stroke-linejoin:miter;stroke-miterlimit:4;stroke-dasharray:none;stroke-dashoffset:0"
   vector-effect="non-scaling-stroke"
   transform="translate(-70.54,-166.98)"
   d="m 62.271965,141.93167 -0.02483,2.27614 4.405294,1.93377 -1.697279,40.8133 -7.581889,2.42553 -0.0014,2.63909 26.340718,-0.021 v -2.61803 l -7.546941,-2.51176 -2.028826,-43.52978 c -1.297524,0.29795 -2.620881,0.44965 -3.948212,0.45258 -2.73404,-0.003 -5.434912,-0.6379 -7.916654,-1.8598 z"
   stroke-linecap="round"
   id="path494" />
</g><g
   transform="matrix(3.97,0,0,3.97,187.47009,215.85608)"
   id="path1258">
<circle
   style="opacity:1;fill:#f9f9f9;fill-rule:nonzero;stroke:#ffffff;stroke-width:0.413044;stroke-linecap:butt;stroke-linejoin:miter;stroke-miterlimit:4;stroke-dasharray:none;stroke-dashoffset:0"
   vector-effect="non-scaling-stroke"
   cx="0"
   cy="0"
   r="9.293478"
   id="circle550" />
</g><g
   transform="matrix(3.97,0,0,3.97,396.77009,215.27608)"
   id="path15074">
<path
   style="opacity:1;fill:#f9f9f9;fill-rule:nonzero;stroke:#ffffff;stroke-width:0.4;stroke-linecap:butt;stroke-linejoin:miter;stroke-miterlimit:4;stroke-dasharray:none;stroke-dashoffset:0"
   vector-effect="non-scaling-stroke"
   transform="translate(-123.28,-124.62)"
   d="m 126.3104,119.48594 -6.23834,0.0833 0.002,10.19173 6.41895,-0.0586 z"
   stroke-linecap="round"
   id="path553" />
</g><g
   transform="matrix(3.97,0,0,3.97,23.39009,357.75608)"
   id="path15174">
<path
   style="opacity:1;fill:#f9f9f9;fill-rule:nonzero;stroke:#ffffff;stroke-width:0.4;stroke-linecap:butt;stroke-linejoin:miter;stroke-miterlimit:4;stroke-dasharray:none;stroke-dashoffset:0"
   vector-effect="non-scaling-stroke"
   transform="translate(-29.2,-160.53)"
   d="m 23.682658,158.50966 4.5555,-3.7975 6.568064,7.74583 -4.545634,3.88316 -6.671903,-7.73857 z"
   stroke-linecap="round"
   id="path556" />
</g><g
   transform="matrix(3.97,0,0,3.97,117.96009,19.35608)"
   id="path15244">
<path
   style="opacity:1;fill:#f9f9f9;fill-rule:nonzero;stroke:#ffffff;stroke-width:0.4;stroke-linecap:butt;stroke-linejoin:miter;stroke-miterlimit:4;stroke-dasharray:none;stroke-dashoffset:0"
   vector-effect="non-scaling-stroke"
   transform="translate(-53.03,-75.26)"
   d="m 47.142532,73.954399 1.981398,5.915904 9.788779,-2.957951 -2.083475,-6.2723 z"
   stroke-linecap="round"
   id="path559" />
</g>
</svg>
