<?xml version="1.0" encoding="UTF-8" standalone="no"?>
<!-- Created with Inkscape (http://www.inkscape.org/) -->

<svg
   width="182.70035mm"
   height="128.05516mm"
   viewBox="0 0 174.00033 86.232431"
   version="1.1"
   id="svg5"
   inkscape:version="1.2.2 (732a01da63, 2022-12-09)"
   sodipodi:docname="LOGOV4_Grey.svg"
   xmlns:inkscape="http://www.inkscape.org/namespaces/inkscape"
   xmlns:sodipodi="http://sodipodi.sourceforge.net/DTD/sodipodi-0.dtd"
   xmlns="http://www.w3.org/2000/svg"
   xmlns:svg="http://www.w3.org/2000/svg">
  <sodipodi:namedview
     id="namedview7"
     pagecolor="#ffffff"
     bordercolor="#000000"
     borderopacity="0.25"
     inkscape:showpageshadow="2"
     inkscape:pageopacity="0.0"
     inkscape:pagecheckerboard="0"
     inkscape:deskcolor="#d1d1d1"
     inkscape:document-units="mm"
     showgrid="false"
     inkscape:zoom="1.0255231"
     inkscape:cx="218.91267"
     inkscape:cy="112.13789"
     inkscape:window-width="1920"
     inkscape:window-height="1019"
     inkscape:window-x="1044"
     inkscape:window-y="236"
     inkscape:window-maximized="1"
     inkscape:current-layer="layer1" />
  <defs
     id="defs2" />
  <g
     inkscape:label="Lager 1"
     inkscape:groupmode="layer"
     id="layer1"
     transform="translate(-23.30547,-111.81406)">
    <path
       id="path1363"
       style="fill:#cccccc;fill-opacity:1;stroke:#000000;stroke-width:0.4"
       d="m 126.3104,119.48594 -27.364742,0.36535 -10.322887,3.44062 a 21.262909,21.262907 0 0 1 0.05323,1.48466 21.262909,21.262907 0 0 1 -0.679545,5.2772 l 38.496354,-0.3514 z" />
    <path
       id="path1365"
       style="fill:#cccccc;fill-opacity:1;stroke:#000000;stroke-width:0.4"
       d="m 56.829234,70.640052 -9.683758,3.260758 8.615908,25.975868 6.455955,8.879172 a 21.262909,21.262907 6.1940369 0 1 6.480243,-1.82396 z" />
    <path
       id="path1367"
       style="fill:#cccccc;fill-opacity:1;stroke:#000000;stroke-width:0.4"
       d="m 52.840684,133.82461 -29.251999,24.77797 6.671904,7.73857 20.808398,-17.77582 5.829272,-9.39365 a 21.262909,21.262907 5.1082964 0 1 -4.057575,-5.34707 z" />
    <path
       style="fill:#cccccc;fill-opacity:1;stroke:#000000;stroke-width:0.4"
       d="m 87.937741,138.04873 0.08663,54.07658 39.860379,-0.0172 0.0456,-11.38544 -28.468581,-0.034 -1.6e-4,-19.39216 28.531691,-0.0115 -0.0592,-11.38538 -28.467401,0.0322 0.1154,-11.88314 z"
       id="path1421"
       sodipodi:nodetypes="ccccccccccc" />
    <path
       style="fill:#cccccc;fill-opacity:1;stroke:#000000;stroke-width:0.4"
       d="m 132.26858,192.11576 -0.40565,-67.34604 4.3719,-5.29292 13.04467,-0.012 23.86898,60.85542 0.40308,-55.55049 3.62051,-5.33062 7.13885,-0.0106 0.0636,72.70191 -17.2904,-0.006 -23.7197,-61.86825 0.3061,61.86903 z"
       id="path1423"
       sodipodi:nodetypes="ccccccccccccc" />
    <path
       id="path3659"
       style="fill:#b3b3b3;fill-opacity:1;stroke:#000000;stroke-width:0.349649"
       d="m 62.271965,141.93167 -0.02483,2.27614 4.405294,1.93377 -1.697279,40.8133 -7.581889,2.42553 -0.0014,2.63909 26.340718,-0.021 v -2.61803 l -7.546941,-2.51176 -2.028826,-43.52978 a 18.920805,20.153781 0 0 1 -3.948212,0.45258 18.920805,20.153781 0 0 1 -7.916654,-1.8598 z" />
    <circle
       style="fill:#b3b3b3;fill-opacity:1;stroke:#000000;stroke-width:0.413044"
       id="path1258"
       cx="70.542175"
       cy="124.76972"
       r="9.293478" />
    <path
       style="fill:#b3b3b3;fill-opacity:1;stroke:#000000;stroke-width:0.4"
       d="m 126.3104,119.48594 -6.23834,0.0833 0.002,10.19173 6.41895,-0.0586 z"
       id="path15074" />
    <path
       style="fill:#b3b3b3;fill-opacity:1;stroke:#000000;stroke-width:0.4"
       d="m 23.682658,158.50966 4.5555,-3.7975 6.568064,7.74583 -4.545634,3.88316 -6.671903,-7.73857 z"
       id="path15174"
       sodipodi:nodetypes="cccccc" />
    <path
       style="fill:#b3b3b3;fill-opacity:1;stroke:#000000;stroke-width:0.4"
       d="m 47.142532,73.954399 1.981398,5.915904 9.788779,-2.957951 -2.083475,-6.2723 z"
       id="path15244" />
  </g>
</svg>
